<svg xmlns="http://www.w3.org/2000/svg" xmlns:xlink="http://www.w3.org/1999/xlink" width="109" height="251" viewBox="0 0 109 251"><defs><style>.a{fill:none;}.b{clip-path:url(#a);}.c{fill:#877EF3;}</style><clipPath id="a"><rect className="a" width="109" height="251"/></clipPath></defs><g className="b"><g transform="translate(-1801 -93)"><circle className="c" cx="4" cy="4" r="4" transform="translate(1801 93)"/></g><g transform="translate(-1753 -93)"><circle className="c" cx="4" cy="4" r="4" transform="translate(1801 93)"/></g><g transform="translate(-1705 -93)"><circle className="c" cx="4" cy="4" r="4" transform="translate(1801 93)"/></g><g transform="translate(-1801 -45)"><circle className="c" cx="4" cy="4" r="4" transform="translate(1801 93)"/></g><g transform="translate(-1753 -45)"><circle className="c" cx="4" cy="4" r="4" transform="translate(1801 93)"/></g><g transform="translate(-1705 -45)"><circle className="c" cx="4" cy="4" r="4" transform="translate(1801 93)"/></g><g transform="translate(-1801 3)"><circle className="c" cx="4" cy="4" r="4" transform="translate(1801 93)"/></g><g transform="translate(-1753 3)"><circle className="c" cx="4" cy="4" r="4" transform="translate(1801 93)"/></g><g transform="translate(-1705 3)"><circle className="c" cx="4" cy="4" r="4" transform="translate(1801 93)"/></g><g transform="translate(-1801 51)"><circle className="c" cx="4" cy="4" r="4" transform="translate(1801 93)"/></g><g transform="translate(-1753 51)"><circle className="c" cx="4" cy="4" r="4" transform="translate(1801 93)"/></g><g transform="translate(-1705 51)"><circle className="c" cx="4" cy="4" r="4" transform="translate(1801 93)"/></g><g transform="translate(-1801 99)"><circle className="c" cx="4" cy="4" r="4" transform="translate(1801 93)"/></g><g transform="translate(-1753 99)"><circle className="c" cx="4" cy="4" r="4" transform="translate(1801 93)"/></g><g transform="translate(-1705 99)"><circle className="c" cx="4" cy="4" r="4" transform="translate(1801 93)"/></g><g transform="translate(-1801 147)"><circle className="c" cx="4" cy="4" r="4" transform="translate(1801 93)"/></g><g transform="translate(-1753 147)"><circle className="c" cx="4" cy="4" r="4" transform="translate(1801 93)"/></g><g transform="translate(-1705 147)"><circle className="c" cx="4" cy="4" r="4" transform="translate(1801 93)"/></g></g></svg>